<?xml version="1.0" encoding="utf-8"?>
<!-- Generator: Adobe Illustrator 22.0.1, SVG Export Plug-In . SVG Version: 6.00 Build 0)  -->
<svg version="1.1" id="레이어_1" xmlns="http://www.w3.org/2000/svg" xmlns:xlink="http://www.w3.org/1999/xlink" x="0px"
	 y="0px" viewBox="0 0 30 30" style="enable-background:new 0 0 30 30;" xml:space="preserve">
<style type="text/css">
	.st0{fill:#0068FF;}
</style>
<g>
	<path class="st0" d="M23.4,16.4H6.6c-0.9,0-1.6-0.7-1.6-1.6l0,0c0-0.9,0.7-1.6,1.6-1.6h16.8c0.9,0,1.6,0.7,1.6,1.6l0,0
		C25,15.7,24.3,16.4,23.4,16.4z"/>
	<path class="st0" d="M23.4,9.1H12c-0.9,0-1.6-0.7-1.6-1.6l0,0c0-0.9,0.7-1.6,1.6-1.6h11.4c0.9,0,1.6,0.7,1.6,1.6l0,0
		C25,8.4,24.3,9.1,23.4,9.1z"/>
	<path class="st0" d="M23.4,24h-7.5c-0.9,0-1.6-0.7-1.6-1.6l0,0c0-0.9,0.7-1.6,1.6-1.6h7.5c0.9,0,1.6,0.7,1.6,1.6l0,0
		C25,23.2,24.3,24,23.4,24z"/>
</g>
</svg>
